<?xml version="1.0" encoding="UTF-8" standalone="no"?>
<!DOCTYPE svg PUBLIC "-//W3C//DTD SVG 1.1//EN" "http://www.w3.org/Graphics/SVG/1.1/DTD/svg11.dtd">
<svg width="100%" height="100%" viewBox="0 0 398 398" version="1.1" xmlns="http://www.w3.org/2000/svg" xmlns:xlink="http://www.w3.org/1999/xlink" xml:space="preserve" xmlns:serif="http://www.serif.com/" style="fill-rule:evenodd;clip-rule:evenodd;stroke-linejoin:round;stroke-miterlimit:2;">
    <g transform="matrix(-0.646471,0,0,0.646696,4459.12,-2352.55)">
        <path d="M6566.93,4157.48L6566.93,4110.24L6472.44,4110.24L6472.44,4157.48L6425.2,4157.48L6425.2,4204.72L6472.44,4204.72L6472.44,4251.97L6566.93,4251.97L6566.93,4204.72L6614.17,4204.72L6614.17,4157.48L6566.93,4157.48ZM6425.2,4110.24L6377.95,4110.24L6377.95,4157.48L6425.2,4157.48L6425.2,4110.24ZM6566.93,4062.99L6614.17,4062.99L6614.17,4157.48L6708.66,4157.48L6708.66,4062.99L6661.42,4062.99L6661.42,3968.5L6614.17,3968.5L6614.17,4015.75L6566.93,4015.75L6566.93,4062.99ZM6755.91,4110.24L6755.91,4157.48L6803.15,4157.48L6803.15,4110.24L6755.91,4110.24ZM6803.15,3968.5L6755.91,3968.5L6755.91,4062.99L6803.15,4062.99L6803.15,4110.24L6850.39,4110.24L6850.39,4062.99L6897.64,4062.99L6897.64,3968.5L6850.39,3968.5L6850.39,3921.26L6803.15,3921.26L6803.15,3968.5ZM6472.44,3921.26L6472.44,3968.5L6377.95,3968.5L6377.95,4062.99L6472.44,4062.99L6472.44,4015.75L6566.93,4015.75L6566.93,3968.5L6519.69,3968.5L6519.69,3921.26L6472.44,3921.26ZM6377.95,3921.26L6425.2,3921.26L6425.2,3826.77L6377.95,3826.77L6377.95,3779.53L6330.71,3779.53L6330.71,3826.77L6283.47,3826.77L6283.47,3921.26L6330.71,3921.26L6330.71,3968.5L6377.95,3968.5L6377.95,3921.26ZM6708.66,3968.5L6708.66,3921.26L6803.15,3921.26L6803.15,3826.77L6708.66,3826.77L6708.66,3874.02L6614.17,3874.02L6614.17,3921.26L6661.42,3921.26L6661.42,3968.5L6708.66,3968.5ZM6566.93,3826.77L6566.93,3732.28L6614.17,3732.28L6614.17,3779.53L6708.66,3779.53L6708.66,3732.28L6755.91,3732.28L6755.91,3685.04L6708.66,3685.04L6708.66,3637.8L6614.17,3637.8L6614.17,3685.04L6566.93,3685.04L6566.93,3732.28L6472.44,3732.28L6472.44,3826.77L6519.69,3826.77L6519.69,3921.26L6566.93,3921.26L6566.93,3874.02L6614.17,3874.02L6614.17,3826.77L6566.93,3826.77ZM6425.2,3779.53L6425.2,3732.28L6377.95,3732.28L6377.95,3779.53L6425.2,3779.53ZM6755.91,3779.53L6803.15,3779.53L6803.15,3732.28L6755.91,3732.28L6755.91,3779.53Z" style="fill:rgb(28,26,29);"/>
    </g>
</svg>
