<?xml version="1.0" encoding="UTF-8" standalone="no"?>
<!DOCTYPE svg PUBLIC "-//W3C//DTD SVG 1.1//EN" "http://www.w3.org/Graphics/SVG/1.1/DTD/svg11.dtd">
<svg width="100%" height="100%" viewBox="0 0 1826 471" version="1.1" xmlns="http://www.w3.org/2000/svg" xmlns:xlink="http://www.w3.org/1999/xlink" xml:space="preserve" xmlns:serif="http://www.serif.com/" style="fill-rule:evenodd;clip-rule:evenodd;stroke-linejoin:round;stroke-miterlimit:2;">
    <g transform="matrix(0.496039,0,0,0.496212,-282.211,-1875.94)">
        <g transform="matrix(-1.30327,0,0,1.30327,12438.3,-867.002)">
            <path d="M6566.93,4157.48L6566.93,4110.24L6472.44,4110.24L6472.44,4157.48L6425.2,4157.48L6425.2,4204.72L6472.44,4204.72L6472.44,4251.97L6566.93,4251.97L6566.93,4204.72L6614.17,4204.72L6614.17,4157.48L6566.93,4157.48ZM6425.2,4110.24L6377.95,4110.24L6377.95,4157.48L6425.2,4157.48L6425.2,4110.24ZM6566.93,4062.99L6614.17,4062.99L6614.17,4157.48L6708.66,4157.48L6708.66,4062.99L6661.42,4062.99L6661.42,3968.5L6614.17,3968.5L6614.17,4015.75L6566.93,4015.75L6566.93,4062.99ZM6755.91,4110.24L6755.91,4157.48L6803.15,4157.48L6803.15,4110.24L6755.91,4110.24ZM6803.15,3968.5L6755.91,3968.5L6755.91,4062.99L6803.15,4062.99L6803.15,4110.24L6850.39,4110.24L6850.39,4062.99L6897.64,4062.99L6897.64,3968.5L6850.39,3968.5L6850.39,3921.26L6803.15,3921.26L6803.15,3968.5ZM6472.44,3921.26L6472.44,3968.5L6377.95,3968.5L6377.95,4062.99L6472.44,4062.99L6472.44,4015.75L6566.93,4015.75L6566.93,3968.5L6519.69,3968.5L6519.69,3921.26L6472.44,3921.26ZM6377.95,3921.26L6425.2,3921.26L6425.2,3826.77L6377.95,3826.77L6377.95,3779.53L6330.71,3779.53L6330.71,3826.77L6283.47,3826.77L6283.47,3921.26L6330.71,3921.26L6330.71,3968.5L6377.95,3968.5L6377.95,3921.26ZM6708.66,3968.5L6708.66,3921.26L6803.15,3921.26L6803.15,3826.77L6708.66,3826.77L6708.66,3874.02L6614.17,3874.02L6614.17,3921.26L6661.42,3921.26L6661.42,3968.5L6708.66,3968.5ZM6566.93,3826.77L6566.93,3732.28L6614.17,3732.28L6614.17,3779.53L6708.66,3779.53L6708.66,3732.28L6755.91,3732.28L6755.91,3685.04L6708.66,3685.04L6708.66,3637.8L6614.17,3637.8L6614.17,3685.04L6566.93,3685.04L6566.93,3732.28L6472.44,3732.28L6472.44,3826.77L6519.69,3826.77L6519.69,3921.26L6566.93,3921.26L6566.93,3874.02L6614.17,3874.02L6614.17,3826.77L6566.93,3826.77ZM6425.2,3779.53L6425.2,3732.28L6377.95,3732.28L6377.95,3779.53L6425.2,3779.53ZM6755.91,3779.53L6803.15,3779.53L6803.15,3732.28L6755.91,3732.28L6755.91,3779.53Z" style="fill:rgb(28,26,29);"/>
        </g>
        <g transform="matrix(1,0,0,1,-1069,245.958)">
            <g>
                <g transform="matrix(600,0,0,600,2422.73,3974.97)">
                    <path d="M0.298,0.012C0.336,0.012 0.372,0.007 0.406,-0.005C0.44,-0.016 0.47,-0.031 0.497,-0.052C0.523,-0.073 0.544,-0.098 0.559,-0.127C0.574,-0.156 0.581,-0.189 0.581,-0.225C0.581,-0.262 0.574,-0.293 0.56,-0.317C0.546,-0.341 0.528,-0.361 0.505,-0.376C0.482,-0.391 0.457,-0.403 0.43,-0.412C0.403,-0.421 0.375,-0.429 0.347,-0.436C0.32,-0.443 0.295,-0.45 0.272,-0.457C0.249,-0.464 0.231,-0.474 0.217,-0.485C0.203,-0.496 0.196,-0.512 0.196,-0.531C0.196,-0.548 0.201,-0.564 0.21,-0.577C0.219,-0.59 0.231,-0.6 0.248,-0.607C0.264,-0.614 0.282,-0.617 0.303,-0.617C0.336,-0.617 0.365,-0.608 0.392,-0.591C0.419,-0.574 0.441,-0.55 0.46,-0.52L0.569,-0.594C0.544,-0.635 0.51,-0.668 0.467,-0.695C0.424,-0.721 0.37,-0.734 0.305,-0.734C0.269,-0.734 0.235,-0.729 0.203,-0.718C0.17,-0.707 0.142,-0.692 0.117,-0.673C0.092,-0.653 0.073,-0.629 0.059,-0.601C0.045,-0.573 0.038,-0.542 0.038,-0.508C0.038,-0.471 0.045,-0.44 0.059,-0.416C0.072,-0.392 0.091,-0.373 0.114,-0.358C0.137,-0.343 0.162,-0.331 0.189,-0.322C0.216,-0.313 0.243,-0.305 0.27,-0.299C0.297,-0.292 0.322,-0.285 0.344,-0.278C0.368,-0.27 0.386,-0.26 0.4,-0.248C0.413,-0.235 0.42,-0.219 0.42,-0.199C0.42,-0.18 0.415,-0.164 0.405,-0.15C0.395,-0.136 0.381,-0.125 0.364,-0.117C0.346,-0.11 0.325,-0.106 0.302,-0.106C0.263,-0.106 0.226,-0.117 0.192,-0.138C0.157,-0.159 0.129,-0.188 0.106,-0.225L-0.001,-0.142C0.018,-0.111 0.043,-0.083 0.073,-0.06C0.102,-0.037 0.136,-0.019 0.174,-0.007C0.213,0.006 0.254,0.012 0.298,0.012Z" style="fill:rgb(27,27,31);fill-rule:nonzero;"/>
                </g>
                <g transform="matrix(600,0,0,600,2797.73,3974.97)">
                    <path d="M0.208,-0.505L0.057,-0.505L0.057,0.178L0.211,0.178L0.211,-0.062C0.225,-0.043 0.243,-0.026 0.265,-0.011C0.287,0.004 0.313,0.012 0.344,0.012C0.382,0.012 0.416,0.001 0.445,-0.021C0.474,-0.042 0.497,-0.073 0.514,-0.113C0.531,-0.153 0.539,-0.2 0.539,-0.255C0.539,-0.31 0.531,-0.357 0.516,-0.396C0.5,-0.435 0.478,-0.465 0.449,-0.486C0.42,-0.506 0.387,-0.517 0.349,-0.517C0.318,-0.517 0.29,-0.509 0.267,-0.493C0.243,-0.477 0.223,-0.459 0.208,-0.439L0.208,-0.505ZM0.211,-0.362C0.224,-0.379 0.237,-0.392 0.251,-0.4C0.264,-0.407 0.277,-0.411 0.291,-0.411C0.31,-0.411 0.326,-0.405 0.339,-0.394C0.352,-0.383 0.362,-0.366 0.369,-0.345C0.376,-0.324 0.379,-0.298 0.379,-0.268L0.379,-0.247C0.379,-0.218 0.376,-0.191 0.37,-0.168C0.363,-0.145 0.354,-0.127 0.341,-0.114C0.328,-0.101 0.311,-0.094 0.29,-0.094C0.273,-0.094 0.259,-0.098 0.246,-0.107C0.233,-0.116 0.221,-0.127 0.211,-0.141L0.211,-0.362Z" style="fill:rgb(27,27,31);fill-rule:nonzero;"/>
                </g>
                <g transform="matrix(600,0,0,600,3152.33,3974.97)">
                    <path d="M0.324,-0.331C0.295,-0.326 0.266,-0.321 0.236,-0.314C0.207,-0.307 0.18,-0.299 0.155,-0.29C0.129,-0.281 0.106,-0.269 0.087,-0.256C0.068,-0.242 0.052,-0.225 0.041,-0.206C0.03,-0.187 0.024,-0.164 0.024,-0.137C0.024,-0.107 0.031,-0.081 0.045,-0.059C0.058,-0.037 0.077,-0.02 0.101,-0.009C0.124,0.003 0.151,0.009 0.181,0.009C0.212,0.009 0.241,0.002 0.266,-0.013C0.291,-0.028 0.312,-0.045 0.329,-0.064C0.33,-0.052 0.331,-0.04 0.334,-0.029C0.336,-0.018 0.338,-0.008 0.341,-0L0.484,-0C0.479,-0.021 0.476,-0.042 0.474,-0.063C0.472,-0.084 0.471,-0.105 0.471,-0.126L0.471,-0.325C0.471,-0.368 0.463,-0.404 0.447,-0.433C0.43,-0.461 0.407,-0.482 0.376,-0.496C0.345,-0.51 0.309,-0.517 0.266,-0.517C0.225,-0.517 0.189,-0.51 0.158,-0.498C0.127,-0.485 0.102,-0.467 0.082,-0.446C0.062,-0.425 0.047,-0.401 0.036,-0.375L0.17,-0.348C0.179,-0.368 0.191,-0.384 0.205,-0.396C0.219,-0.408 0.237,-0.414 0.258,-0.414C0.281,-0.414 0.297,-0.408 0.308,-0.396C0.319,-0.384 0.324,-0.367 0.324,-0.345L0.324,-0.331ZM0.324,-0.251L0.324,-0.14C0.313,-0.127 0.3,-0.115 0.284,-0.106C0.27,-0.097 0.252,-0.092 0.233,-0.092C0.214,-0.092 0.198,-0.097 0.185,-0.108C0.172,-0.118 0.165,-0.133 0.165,-0.154C0.165,-0.174 0.172,-0.19 0.186,-0.202C0.2,-0.214 0.219,-0.224 0.244,-0.232C0.268,-0.239 0.295,-0.246 0.324,-0.251Z" style="fill:rgb(27,27,31);fill-rule:nonzero;"/>
                </g>
                <g transform="matrix(600,0,0,600,3477.53,3974.97)">
                    <path d="M0.003,-0.505L0.003,-0.4L0.077,-0.4L0.077,-0.124C0.077,-0.088 0.084,-0.06 0.099,-0.041C0.114,-0.021 0.134,-0.007 0.159,0.001C0.184,0.008 0.211,0.012 0.241,0.012C0.262,0.012 0.283,0.01 0.303,0.007C0.322,0.003 0.339,-0.002 0.354,-0.007L0.354,-0.111C0.341,-0.107 0.33,-0.104 0.32,-0.102C0.31,-0.1 0.3,-0.099 0.289,-0.099C0.27,-0.099 0.255,-0.104 0.245,-0.113C0.234,-0.122 0.229,-0.137 0.229,-0.157L0.229,-0.4L0.349,-0.4L0.349,-0.505L0.23,-0.505L0.23,-0.647L0.103,-0.647L0.082,-0.505L0.003,-0.505Z" style="fill:rgb(27,27,31);fill-rule:nonzero;"/>
                </g>
                <g transform="matrix(600,0,0,600,3713.33,3974.97)">
                    <path d="M0.056,-0.581L0.212,-0.581L0.212,-0.722L0.056,-0.722L0.056,-0.581ZM0.057,-0L0.211,-0L0.211,-0.505L0.057,-0.505L0.057,-0Z" style="fill:rgb(27,27,31);fill-rule:nonzero;"/>
                </g>
                <g transform="matrix(600,0,0,600,3889.13,3974.97)">
                    <path d="M0.324,-0.331C0.295,-0.326 0.266,-0.321 0.236,-0.314C0.207,-0.307 0.18,-0.299 0.155,-0.29C0.129,-0.281 0.106,-0.269 0.087,-0.256C0.068,-0.242 0.052,-0.225 0.041,-0.206C0.03,-0.187 0.024,-0.164 0.024,-0.137C0.024,-0.107 0.031,-0.081 0.045,-0.059C0.058,-0.037 0.077,-0.02 0.101,-0.009C0.124,0.003 0.151,0.009 0.181,0.009C0.212,0.009 0.241,0.002 0.266,-0.013C0.291,-0.028 0.312,-0.045 0.329,-0.064C0.33,-0.052 0.331,-0.04 0.334,-0.029C0.336,-0.018 0.338,-0.008 0.341,-0L0.484,-0C0.479,-0.021 0.476,-0.042 0.474,-0.063C0.472,-0.084 0.471,-0.105 0.471,-0.126L0.471,-0.325C0.471,-0.368 0.463,-0.404 0.447,-0.433C0.43,-0.461 0.407,-0.482 0.376,-0.496C0.345,-0.51 0.309,-0.517 0.266,-0.517C0.225,-0.517 0.189,-0.51 0.158,-0.498C0.127,-0.485 0.102,-0.467 0.082,-0.446C0.062,-0.425 0.047,-0.401 0.036,-0.375L0.17,-0.348C0.179,-0.368 0.191,-0.384 0.205,-0.396C0.219,-0.408 0.237,-0.414 0.258,-0.414C0.281,-0.414 0.297,-0.408 0.308,-0.396C0.319,-0.384 0.324,-0.367 0.324,-0.345L0.324,-0.331ZM0.324,-0.251L0.324,-0.14C0.313,-0.127 0.3,-0.115 0.284,-0.106C0.27,-0.097 0.252,-0.092 0.233,-0.092C0.214,-0.092 0.198,-0.097 0.185,-0.108C0.172,-0.118 0.165,-0.133 0.165,-0.154C0.165,-0.174 0.172,-0.19 0.186,-0.202C0.2,-0.214 0.219,-0.224 0.244,-0.232C0.268,-0.239 0.295,-0.246 0.324,-0.251Z" style="fill:rgb(27,27,31);fill-rule:nonzero;"/>
                </g>
                <g transform="matrix(600,0,0,600,4219.13,3974.97)">
                    <rect x="0.057" y="-0.722" width="0.154" height="0.722" style="fill:rgb(27,27,31);fill-rule:nonzero;"/>
                </g>
                <g transform="matrix(600,0,0,600,1634.33,4474.97)">
                    <path d="M0.006,-0L0.143,-0L0.198,-0.179L0.429,-0.179L0.484,-0L0.649,-0L0.423,-0.722L0.232,-0.722L0.006,-0ZM0.233,-0.294L0.314,-0.557L0.394,-0.294L0.233,-0.294Z" style="fill:rgb(27,27,31);fill-rule:nonzero;"/>
                </g>
                <g transform="matrix(600,0,0,600,2039.33,4474.97)">
                    <path d="M0.361,-0L0.512,-0L0.512,-0.505L0.358,-0.505L0.358,-0.158C0.351,-0.151 0.342,-0.143 0.332,-0.135C0.321,-0.127 0.31,-0.12 0.299,-0.115C0.288,-0.11 0.276,-0.107 0.265,-0.107C0.244,-0.107 0.23,-0.113 0.221,-0.126C0.212,-0.139 0.208,-0.155 0.208,-0.176L0.208,-0.505L0.054,-0.505L0.054,-0.147C0.054,-0.098 0.067,-0.059 0.092,-0.031C0.117,-0.002 0.151,0.012 0.194,0.012C0.218,0.012 0.24,0.008 0.26,-0.001C0.28,-0.009 0.298,-0.02 0.315,-0.034C0.332,-0.047 0.347,-0.062 0.361,-0.078L0.361,-0Z" style="fill:rgb(27,27,31);fill-rule:nonzero;"/>
                </g>
                <g transform="matrix(600,0,0,600,2395.13,4474.97)">
                    <path d="M0.003,-0.505L0.003,-0.4L0.077,-0.4L0.077,-0.124C0.077,-0.088 0.084,-0.06 0.099,-0.041C0.114,-0.021 0.134,-0.007 0.159,0.001C0.184,0.008 0.211,0.012 0.241,0.012C0.262,0.012 0.283,0.01 0.303,0.007C0.322,0.003 0.339,-0.002 0.354,-0.007L0.354,-0.111C0.341,-0.107 0.33,-0.104 0.32,-0.102C0.31,-0.1 0.3,-0.099 0.289,-0.099C0.27,-0.099 0.255,-0.104 0.245,-0.113C0.234,-0.122 0.229,-0.137 0.229,-0.157L0.229,-0.4L0.349,-0.4L0.349,-0.505L0.23,-0.505L0.23,-0.647L0.103,-0.647L0.082,-0.505L0.003,-0.505Z" style="fill:rgb(27,27,31);fill-rule:nonzero;"/>
                </g>
                <g transform="matrix(600,0,0,600,2629.73,4474.97)">
                    <path d="M0.518,-0.253C0.518,-0.306 0.507,-0.352 0.486,-0.392C0.465,-0.431 0.436,-0.462 0.399,-0.484C0.362,-0.506 0.319,-0.517 0.271,-0.517C0.224,-0.517 0.181,-0.506 0.144,-0.484C0.107,-0.462 0.078,-0.431 0.057,-0.392C0.035,-0.352 0.025,-0.306 0.025,-0.253C0.025,-0.2 0.035,-0.154 0.057,-0.114C0.078,-0.074 0.107,-0.043 0.144,-0.021C0.181,0.001 0.224,0.012 0.271,0.012C0.319,0.012 0.362,0.001 0.399,-0.021C0.436,-0.043 0.465,-0.074 0.486,-0.114C0.507,-0.154 0.518,-0.2 0.518,-0.253ZM0.271,-0.417C0.3,-0.417 0.322,-0.405 0.336,-0.381C0.35,-0.356 0.357,-0.321 0.357,-0.276L0.357,-0.229C0.357,-0.184 0.35,-0.15 0.336,-0.125C0.322,-0.1 0.3,-0.088 0.271,-0.088C0.242,-0.088 0.221,-0.1 0.207,-0.125C0.193,-0.15 0.186,-0.184 0.186,-0.229L0.186,-0.276C0.186,-0.321 0.193,-0.356 0.207,-0.381C0.221,-0.405 0.242,-0.417 0.271,-0.417Z" style="fill:rgb(27,27,31);fill-rule:nonzero;"/>
                </g>
                <g transform="matrix(600,0,0,600,2970.53,4474.97)">
                    <path d="M0.208,-0.505L0.057,-0.505L0.057,-0L0.211,-0L0.211,-0.347C0.218,-0.355 0.227,-0.363 0.236,-0.371C0.246,-0.378 0.257,-0.385 0.268,-0.39C0.279,-0.395 0.29,-0.398 0.301,-0.398C0.322,-0.398 0.337,-0.392 0.344,-0.38C0.351,-0.367 0.355,-0.35 0.355,-0.329L0.355,-0L0.509,-0L0.509,-0.347C0.516,-0.355 0.525,-0.363 0.535,-0.371C0.545,-0.378 0.556,-0.385 0.567,-0.39C0.578,-0.395 0.589,-0.398 0.6,-0.398C0.621,-0.398 0.635,-0.392 0.643,-0.38C0.65,-0.367 0.654,-0.35 0.654,-0.329L0.654,-0L0.808,-0L0.808,-0.359C0.808,-0.408 0.796,-0.447 0.771,-0.475C0.746,-0.503 0.713,-0.517 0.67,-0.517C0.647,-0.517 0.625,-0.512 0.604,-0.503C0.583,-0.494 0.564,-0.482 0.547,-0.468C0.53,-0.453 0.514,-0.438 0.5,-0.422C0.491,-0.453 0.476,-0.477 0.454,-0.493C0.431,-0.509 0.403,-0.517 0.37,-0.517C0.347,-0.517 0.326,-0.513 0.307,-0.504C0.287,-0.496 0.269,-0.485 0.253,-0.471C0.236,-0.458 0.221,-0.443 0.208,-0.427L0.208,-0.505Z" style="fill:rgb(27,27,31);fill-rule:nonzero;"/>
                </g>
                <g transform="matrix(600,0,0,600,3502.13,4474.97)">
                    <path d="M0.324,-0.331C0.295,-0.326 0.266,-0.321 0.236,-0.314C0.207,-0.307 0.18,-0.299 0.155,-0.29C0.129,-0.281 0.106,-0.269 0.087,-0.256C0.068,-0.242 0.052,-0.225 0.041,-0.206C0.03,-0.187 0.024,-0.164 0.024,-0.137C0.024,-0.107 0.031,-0.081 0.045,-0.059C0.058,-0.037 0.077,-0.02 0.101,-0.009C0.124,0.003 0.151,0.009 0.181,0.009C0.212,0.009 0.241,0.002 0.266,-0.013C0.291,-0.028 0.312,-0.045 0.329,-0.064C0.33,-0.052 0.331,-0.04 0.334,-0.029C0.336,-0.018 0.338,-0.008 0.341,-0L0.484,-0C0.479,-0.021 0.476,-0.042 0.474,-0.063C0.472,-0.084 0.471,-0.105 0.471,-0.126L0.471,-0.325C0.471,-0.368 0.463,-0.404 0.447,-0.433C0.43,-0.461 0.407,-0.482 0.376,-0.496C0.345,-0.51 0.309,-0.517 0.266,-0.517C0.225,-0.517 0.189,-0.51 0.158,-0.498C0.127,-0.485 0.102,-0.467 0.082,-0.446C0.062,-0.425 0.047,-0.401 0.036,-0.375L0.17,-0.348C0.179,-0.368 0.191,-0.384 0.205,-0.396C0.219,-0.408 0.237,-0.414 0.258,-0.414C0.281,-0.414 0.297,-0.408 0.308,-0.396C0.319,-0.384 0.324,-0.367 0.324,-0.345L0.324,-0.331ZM0.324,-0.251L0.324,-0.14C0.313,-0.127 0.3,-0.115 0.284,-0.106C0.27,-0.097 0.252,-0.092 0.233,-0.092C0.214,-0.092 0.198,-0.097 0.185,-0.108C0.172,-0.118 0.165,-0.133 0.165,-0.154C0.165,-0.174 0.172,-0.19 0.186,-0.202C0.2,-0.214 0.219,-0.224 0.244,-0.232C0.268,-0.239 0.295,-0.246 0.324,-0.251Z" style="fill:rgb(27,27,31);fill-rule:nonzero;"/>
                </g>
                <g transform="matrix(600,0,0,600,3827.33,4474.97)">
                    <path d="M0.003,-0.505L0.003,-0.4L0.077,-0.4L0.077,-0.124C0.077,-0.088 0.084,-0.06 0.099,-0.041C0.114,-0.021 0.134,-0.007 0.159,0.001C0.184,0.008 0.211,0.012 0.241,0.012C0.262,0.012 0.283,0.01 0.303,0.007C0.322,0.003 0.339,-0.002 0.354,-0.007L0.354,-0.111C0.341,-0.107 0.33,-0.104 0.32,-0.102C0.31,-0.1 0.3,-0.099 0.289,-0.099C0.27,-0.099 0.255,-0.104 0.245,-0.113C0.234,-0.122 0.229,-0.137 0.229,-0.157L0.229,-0.4L0.349,-0.4L0.349,-0.505L0.23,-0.505L0.23,-0.647L0.103,-0.647L0.082,-0.505L0.003,-0.505Z" style="fill:rgb(27,27,31);fill-rule:nonzero;"/>
                </g>
                <g transform="matrix(600,0,0,600,4064.93,4474.97)">
                    <path d="M0.324,-0.331C0.295,-0.326 0.266,-0.321 0.236,-0.314C0.207,-0.307 0.18,-0.299 0.155,-0.29C0.129,-0.281 0.106,-0.269 0.087,-0.256C0.068,-0.242 0.052,-0.225 0.041,-0.206C0.03,-0.187 0.024,-0.164 0.024,-0.137C0.024,-0.107 0.031,-0.081 0.045,-0.059C0.058,-0.037 0.077,-0.02 0.101,-0.009C0.124,0.003 0.151,0.009 0.181,0.009C0.212,0.009 0.241,0.002 0.266,-0.013C0.291,-0.028 0.312,-0.045 0.329,-0.064C0.33,-0.052 0.331,-0.04 0.334,-0.029C0.336,-0.018 0.338,-0.008 0.341,-0L0.484,-0C0.479,-0.021 0.476,-0.042 0.474,-0.063C0.472,-0.084 0.471,-0.105 0.471,-0.126L0.471,-0.325C0.471,-0.368 0.463,-0.404 0.447,-0.433C0.43,-0.461 0.407,-0.482 0.376,-0.496C0.345,-0.51 0.309,-0.517 0.266,-0.517C0.225,-0.517 0.189,-0.51 0.158,-0.498C0.127,-0.485 0.102,-0.467 0.082,-0.446C0.062,-0.425 0.047,-0.401 0.036,-0.375L0.17,-0.348C0.179,-0.368 0.191,-0.384 0.205,-0.396C0.219,-0.408 0.237,-0.414 0.258,-0.414C0.281,-0.414 0.297,-0.408 0.308,-0.396C0.319,-0.384 0.324,-0.367 0.324,-0.345L0.324,-0.331ZM0.324,-0.251L0.324,-0.14C0.313,-0.127 0.3,-0.115 0.284,-0.106C0.27,-0.097 0.252,-0.092 0.233,-0.092C0.214,-0.092 0.198,-0.097 0.185,-0.108C0.172,-0.118 0.165,-0.133 0.165,-0.154C0.165,-0.174 0.172,-0.19 0.186,-0.202C0.2,-0.214 0.219,-0.224 0.244,-0.232C0.268,-0.239 0.295,-0.246 0.324,-0.251Z" style="fill:rgb(27,27,31);fill-rule:nonzero;"/>
                </g>
            </g>
        </g>
    </g>
</svg>
