<?xml version="1.0" encoding="UTF-8"?><svg id="Layer_1" xmlns="http://www.w3.org/2000/svg" viewBox="0 0 720 297.69"><path d="M230.34,136.24c-3.72-1.2-7.02-2.93-9.9-5.19-2.88-2.26-5.26-4.92-7.13-7.96l10.39-8.06c2.2,3.56,4.97,6.37,8.3,8.44,3.33,2.07,6.91,3.11,10.73,3.11,2.26,0,4.25-.37,5.97-1.12,1.72-.74,3.06-1.8,4.03-3.15.97-1.36,1.46-2.94,1.46-4.76,0-1.94-.66-3.51-1.99-4.71-1.33-1.2-3.11-2.17-5.34-2.91-2.23-.74-4.66-1.42-7.28-2.04-2.62-.61-5.24-1.36-7.86-2.23s-5.05-2.04-7.28-3.49c-2.23-1.46-4.01-3.35-5.34-5.68-1.33-2.33-1.99-5.31-1.99-8.93,0-3.3.68-6.31,2.04-9.03,1.36-2.72,3.24-5.03,5.63-6.94,2.39-1.91,5.16-3.38,8.3-4.42,3.14-1.04,6.46-1.55,9.95-1.55,6.28,0,11.52,1.28,15.72,3.83,4.21,2.56,7.51,5.81,9.9,9.75l-10.58,7.18c-1.81-2.91-4.01-5.21-6.6-6.89-2.59-1.68-5.47-2.52-8.64-2.52-2.01,0-3.8.34-5.39,1.02-1.58.68-2.81,1.65-3.69,2.91-.87,1.26-1.31,2.73-1.31,4.42,0,1.88.68,3.36,2.04,4.47,1.36,1.1,3.14,2.01,5.34,2.72,2.2.71,4.64,1.39,7.33,2.04,2.69.65,5.35,1.42,8.01,2.33,2.65.91,5.08,2.09,7.28,3.54,2.2,1.46,3.98,3.35,5.34,5.68,1.36,2.33,2.04,5.31,2.04,8.93s-.73,6.66-2.18,9.51c-1.46,2.85-3.46,5.27-6.02,7.28-2.56,2.01-5.48,3.54-8.78,4.61-3.3,1.07-6.79,1.6-10.48,1.6-4.27,0-8.27-.6-11.99-1.8Z"/><path d="M291.82,94.26c1.49-1.94,3.38-3.69,5.68-5.24,2.3-1.55,4.97-2.33,8.01-2.33,3.69,0,6.92,1.02,9.71,3.06,2.78,2.04,4.93,4.95,6.45,8.74s2.28,8.33,2.28,13.64-.81,9.9-2.43,13.78c-1.62,3.88-3.85,6.88-6.7,8.98s-6.11,3.15-9.8,3.15c-2.98,0-5.53-.74-7.67-2.23-2.14-1.49-3.88-3.14-5.24-4.95v23.29h-14.95v-66.29h14.66v6.41ZM292.11,123.19c.97,1.36,2.09,2.46,3.35,3.3,1.26.84,2.7,1.26,4.32,1.26,2.01,0,3.64-.63,4.9-1.89,1.26-1.26,2.2-3.02,2.81-5.29.61-2.26.92-4.82.92-7.67v-2.04c0-2.91-.34-5.4-1.02-7.47-.68-2.07-1.65-3.66-2.91-4.76-1.26-1.1-2.8-1.65-4.61-1.65-1.36,0-2.67.37-3.93,1.12-1.26.74-2.54,1.96-3.83,3.64v21.45Z"/><path d="M358.01,103.38c0-2.14-.52-3.79-1.55-4.95-1.03-1.16-2.65-1.75-4.85-1.75-2.07,0-3.78.58-5.14,1.75-1.36,1.16-2.49,2.72-3.4,4.66l-13.01-2.62c1.04-2.52,2.52-4.82,4.47-6.89,1.94-2.07,4.4-3.74,7.38-5,2.98-1.26,6.47-1.89,10.48-1.89s7.7.68,10.68,2.04c2.98,1.36,5.26,3.41,6.84,6.16,1.59,2.75,2.38,6.23,2.38,10.43v19.31c0,2.07.1,4.12.29,6.16.19,2.04.52,4.06.97,6.07h-13.88c-.26-.78-.5-1.71-.73-2.82-.23-1.1-.37-2.23-.44-3.4-1.68,1.88-3.74,3.53-6.16,4.95-2.43,1.42-5.16,2.14-8.2,2.14s-5.52-.57-7.81-1.7c-2.3-1.13-4.11-2.77-5.44-4.9-1.33-2.14-1.99-4.66-1.99-7.57,0-2.59.55-4.82,1.65-6.7s2.59-3.48,4.47-4.8c1.88-1.33,4.06-2.44,6.55-3.35,2.49-.91,5.14-1.68,7.96-2.33,2.81-.65,5.65-1.2,8.49-1.65v-1.36ZM350.19,114.4c-2.36.74-4.22,1.7-5.58,2.86-1.36,1.16-2.04,2.72-2.04,4.66s.63,3.51,1.89,4.51c1.26,1,2.83,1.5,4.71,1.5s3.54-.45,5-1.36c1.46-.91,2.73-2.01,3.83-3.3v-10.77c-2.85.52-5.45,1.15-7.81,1.89Z"/><path d="M384.7,87.85l2.04-13.78h12.33v13.78h11.55v10.19h-11.65v23.59c0,1.94.5,3.37,1.5,4.27,1,.91,2.44,1.36,4.32,1.36,1.04,0,2.04-.1,3.01-.29s2.07-.49,3.3-.87v10.09c-1.42.52-3.09.95-5,1.31-1.91.36-3.9.53-5.97.53-2.91,0-5.58-.37-8.01-1.12-2.43-.74-4.35-2.07-5.77-3.98-1.42-1.91-2.14-4.61-2.14-8.1v-26.79h-7.18v-10.19h7.67Z"/><path d="M417.89,66.79h15.14v13.69h-15.14v-13.69ZM417.98,87.85h14.95v49.02h-14.95v-49.02Z"/><path d="M469.91,103.38c0-2.14-.52-3.79-1.55-4.95-1.03-1.16-2.65-1.75-4.85-1.75-2.07,0-3.78.58-5.14,1.75-1.36,1.16-2.49,2.72-3.4,4.66l-13.01-2.62c1.04-2.52,2.52-4.82,4.47-6.89,1.94-2.07,4.4-3.74,7.38-5,2.98-1.26,6.47-1.89,10.48-1.89s7.7.68,10.68,2.04c2.98,1.36,5.26,3.41,6.84,6.16,1.59,2.75,2.38,6.23,2.38,10.43v19.31c0,2.07.1,4.12.29,6.16.19,2.04.52,4.06.97,6.07h-13.88c-.26-.78-.5-1.71-.73-2.82-.23-1.1-.37-2.23-.44-3.4-1.68,1.88-3.74,3.53-6.16,4.95-2.43,1.42-5.16,2.14-8.2,2.14s-5.52-.57-7.81-1.7c-2.3-1.13-4.11-2.77-5.44-4.9-1.33-2.14-1.99-4.66-1.99-7.57,0-2.59.55-4.82,1.65-6.7s2.59-3.48,4.47-4.8c1.88-1.33,4.06-2.44,6.55-3.35,2.49-.91,5.14-1.68,7.96-2.33,2.81-.65,5.65-1.2,8.49-1.65v-1.36ZM462.09,114.4c-2.36.74-4.22,1.7-5.58,2.86-1.36,1.16-2.04,2.72-2.04,4.66s.63,3.51,1.89,4.51c1.26,1,2.83,1.5,4.71,1.5s3.54-.45,5-1.36c1.46-.91,2.73-2.01,3.83-3.3v-10.77c-2.85.52-5.45,1.15-7.81,1.89Z"/><path d="M494.95,66.79h14.95v70.08h-14.95v-70.08Z"/><path d="M85,147.83h18.54l21.94,70.08h-16.02l-5.34-17.37h-22.42l-5.34,17.37h-13.3l21.94-70.08ZM100.72,189.37l-7.76-25.53-7.86,25.53h15.63Z"/><path d="M160.6,210.34c-1.36,1.55-2.85,2.99-4.47,4.32-1.62,1.33-3.4,2.39-5.34,3.2s-4.08,1.21-6.41,1.21c-4.14,0-7.44-1.38-9.9-4.13-2.46-2.75-3.69-6.52-3.69-11.31v-34.75h14.95v31.93c0,2.01.42,3.62,1.26,4.85.84,1.23,2.27,1.84,4.27,1.84,1.1,0,2.2-.26,3.3-.78,1.1-.52,2.15-1.16,3.15-1.94,1-.78,1.86-1.52,2.57-2.23v-33.68h14.95v49.02h-14.66v-7.57Z"/><path d="M188.65,168.89l2.04-13.78h12.33v13.78h11.55v10.19h-11.65v23.59c0,1.94.5,3.37,1.5,4.27s2.44,1.36,4.32,1.36c1.04,0,2.04-.1,3.01-.29s2.07-.49,3.3-.87v10.09c-1.42.52-3.09.95-5,1.31-1.91.36-3.9.53-5.97.53-2.91,0-5.58-.37-8.01-1.12-2.43-.74-4.35-2.07-5.77-3.98-1.42-1.91-2.14-4.61-2.14-8.1v-26.79h-7.18v-10.19h7.67Z"/><path d="M263.38,206.85c-2.07,3.88-4.9,6.89-8.49,9.03-3.59,2.14-7.72,3.2-12.38,3.2s-8.7-1.07-12.33-3.2c-3.62-2.14-6.46-5.14-8.49-9.03-2.04-3.88-3.06-8.38-3.06-13.49s1.02-9.59,3.06-13.44,4.87-6.84,8.49-8.98c3.62-2.14,7.73-3.2,12.33-3.2s8.78,1.07,12.38,3.2c3.59,2.14,6.42,5.13,8.49,8.98s3.11,8.33,3.11,13.44-1.03,9.61-3.11,13.49ZM236.3,180.98c-1.36,2.36-2.04,5.74-2.04,10.14v4.56c0,4.34.68,7.7,2.04,10.09,1.36,2.39,3.43,3.59,6.21,3.59s4.95-1.2,6.31-3.59c1.36-2.39,2.04-5.76,2.04-10.09v-4.56c0-4.4-.68-7.78-2.04-10.14-1.36-2.36-3.46-3.54-6.31-3.54s-4.85,1.18-6.21,3.54Z"/><path d="M289.1,176.47c1.29-1.55,2.73-2.99,4.32-4.32,1.58-1.33,3.33-2.39,5.24-3.2,1.91-.81,3.96-1.21,6.16-1.21,3.24,0,5.94.78,8.1,2.33,2.17,1.55,3.67,3.85,4.51,6.89,1.36-1.55,2.88-3.02,4.56-4.42,1.68-1.39,3.53-2.54,5.53-3.45,2-.91,4.14-1.36,6.41-1.36,4.14,0,7.41,1.36,9.8,4.08,2.39,2.72,3.59,6.47,3.59,11.26v34.84h-14.95v-31.93c0-2.07-.37-3.7-1.12-4.9-.74-1.2-2.12-1.8-4.12-1.8-1.1,0-2.18.26-3.25.78-1.07.52-2.09,1.15-3.06,1.89-.97.74-1.81,1.5-2.52,2.28v33.68h-14.95v-31.93c0-2.07-.36-3.7-1.07-4.9-.71-1.2-2.1-1.8-4.17-1.8-1.1,0-2.18.26-3.25.78-1.07.52-2.07,1.15-3.01,1.89-.94.74-1.76,1.5-2.47,2.28v33.68h-14.95v-49.02h14.66v7.57Z"/><path d="M383.92,184.42c0-2.14-.52-3.79-1.55-4.95-1.03-1.16-2.65-1.75-4.85-1.75-2.07,0-3.78.58-5.14,1.75-1.36,1.16-2.49,2.72-3.4,4.66l-13.01-2.62c1.04-2.52,2.52-4.82,4.47-6.89,1.94-2.07,4.4-3.74,7.38-5,2.98-1.26,6.47-1.89,10.48-1.89s7.7.68,10.68,2.04c2.98,1.36,5.26,3.41,6.84,6.16,1.59,2.75,2.38,6.23,2.38,10.43v19.31c0,2.07.1,4.12.29,6.16.19,2.04.52,4.06.97,6.07h-13.88c-.26-.78-.5-1.71-.73-2.82-.23-1.1-.37-2.23-.44-3.4-1.68,1.88-3.74,3.53-6.16,4.95-2.43,1.42-5.16,2.14-8.2,2.14s-5.52-.57-7.81-1.7c-2.3-1.13-4.11-2.77-5.44-4.9-1.33-2.14-1.99-4.66-1.99-7.57,0-2.59.55-4.82,1.65-6.7,1.1-1.88,2.59-3.48,4.47-4.8,1.88-1.33,4.06-2.44,6.55-3.35,2.49-.91,5.14-1.68,7.96-2.33s5.65-1.2,8.49-1.65v-1.36ZM376.11,195.44c-2.36.74-4.22,1.7-5.58,2.86-1.36,1.16-2.04,2.72-2.04,4.66s.63,3.51,1.89,4.51,2.83,1.5,4.71,1.5,3.54-.45,5-1.36c1.46-.91,2.73-2.01,3.83-3.3v-10.77c-2.85.52-5.45,1.15-7.81,1.89Z"/><path d="M410.61,168.89l2.04-13.78h12.33v13.78h11.55v10.19h-11.65v23.59c0,1.94.5,3.37,1.5,4.27s2.44,1.36,4.32,1.36c1.04,0,2.04-.1,3.01-.29s2.07-.49,3.3-.87v10.09c-1.42.52-3.09.95-5,1.31-1.91.36-3.9.53-5.97.53-2.91,0-5.58-.37-8.01-1.12-2.43-.74-4.35-2.07-5.77-3.98-1.42-1.91-2.14-4.61-2.14-8.1v-26.79h-7.18v-10.19h7.67Z"/><path d="M470.1,184.42c0-2.14-.52-3.79-1.55-4.95-1.03-1.16-2.65-1.75-4.85-1.75-2.07,0-3.78.58-5.14,1.75-1.36,1.16-2.49,2.72-3.4,4.66l-13.01-2.62c1.04-2.52,2.52-4.82,4.47-6.89,1.94-2.07,4.4-3.74,7.38-5,2.98-1.26,6.47-1.89,10.48-1.89s7.7.68,10.68,2.04c2.98,1.36,5.26,3.41,6.84,6.16,1.59,2.75,2.38,6.23,2.38,10.43v19.31c0,2.07.1,4.12.29,6.16.19,2.04.52,4.06.97,6.07h-13.88c-.26-.78-.5-1.71-.73-2.82-.23-1.1-.37-2.23-.44-3.4-1.68,1.88-3.74,3.53-6.16,4.95-2.43,1.42-5.16,2.14-8.2,2.14s-5.52-.57-7.81-1.7c-2.3-1.13-4.11-2.77-5.44-4.9-1.33-2.14-1.99-4.66-1.99-7.57,0-2.59.55-4.82,1.65-6.7,1.1-1.88,2.59-3.48,4.47-4.8,1.88-1.33,4.06-2.44,6.55-3.35,2.49-.91,5.14-1.68,7.96-2.33s5.65-1.2,8.49-1.65v-1.36ZM462.29,195.44c-2.36.74-4.22,1.7-5.58,2.86-1.36,1.16-2.04,2.72-2.04,4.66s.63,3.51,1.89,4.51,2.83,1.5,4.71,1.5,3.54-.45,5-1.36c1.46-.91,2.73-2.01,3.83-3.3v-10.77c-2.85.52-5.45,1.15-7.81,1.89Z"/><path d="M548.1,148.47c0-6.6,0-13.2,0-19.8h19.8v9.85c6.6,0,13.2,0,19.8,0,0,3.32,0,6.64,0,9.95h-9.95c0,3.28,0,6.57,0,9.85-3.28,0-6.57,0-9.85,0v-9.85c-6.6,0-13.2,0-19.8,0Z"/><path d="M597.54,108.87c6.6,0,13.2,0,19.8,0v19.8h-9.85c0,6.6,0,13.2,0,19.8-3.32,0-6.64,0-9.95,0v-9.95c-3.28,0-6.57,0-9.85,0,0-3.28,0-6.57,0-9.85h9.85c0-6.6,0-13.2,0-19.8Z"/><path d="M548.1,148.47c0,3.28,0,6.57,0,9.85h9.85v19.8h-9.85c0,3.32,0,6.64,0,9.95,3.28,0,6.57,0,9.85,0v9.85h-9.85c0-3.28,0-6.57,0-9.85-3.28,0-6.57,0-9.85,0v-9.8l-9.95-.16v-19.8h9.95v-9.85c3.28,0,6.57,0,9.85,0Z"/><path d="M656.94,148.47h-9.95v9.85c-3.28,0-6.57,0-9.85,0,0-3.28,0-6.57,0-9.85h-9.85v-19.8h9.85c0-3.32,0-6.64,0-9.95-3.28,0-6.57,0-9.85,0v-9.85h9.85c0,3.28,0,6.57,0,9.85,3.28,0,6.57,0,9.85,0v9.8l.16.16h9.8"/><path d="M597.54,217.71v-9.95h-9.85c0-3.28,0-6.57,0-9.85,3.28,0,6.57,0,9.85,0v-9.85h19.8v9.85c3.32,0,6.64,0,9.95,0,0-3.28,0-6.57,0-9.85h9.85v9.85c-3.28,0-6.57,0-9.85,0,0,3.28,0,6.57,0,9.85h-9.8l-.16.16v9.8"/><path d="M607.49,148.47c3.28,0,6.57,0,9.85,0v9.85c6.6,0,13.2,0,19.8,0,0,6.6,0,13.2,0,19.8h-19.8v-9.85c-6.6,0-13.2,0-19.8,0,0-3.32,0-6.64,0-9.95h9.95c0-3.28,0-6.57,0-9.85Z"/><path d="M587.7,89.07v9.95h9.85c0,3.28,0,6.57,0,9.85-3.28,0-6.57,0-9.85,0v9.85h-19.8v-9.85c-3.32,0-6.64,0-9.95,0,0,3.28,0,6.57,0,9.85h-9.85v-9.85c3.28,0,6.57,0,9.85,0,0-3.28,0-6.57,0-9.85h9.8l.16-9.95h19.8Z"/><path d="M577.75,158.32c3.32,0,6.64,0,9.95,0v9.95c3.28,0,6.57,0,9.85,0,0,3.28,0,6.57,0,9.85h-9.85c0,6.6,0,13.2,0,19.8-6.6,0-13.2,0-19.8,0v-19.8h9.85c0-6.6,0-13.2,0-19.8Z"/></svg>