<?xml version="1.0" encoding="UTF-8" standalone="no"?>
<!DOCTYPE svg PUBLIC "-//W3C//DTD SVG 1.1//EN" "http://www.w3.org/Graphics/SVG/1.1/DTD/svg11.dtd">
<svg width="100%" height="100%" viewBox="0 0 129 129" version="1.1" xmlns="http://www.w3.org/2000/svg" xmlns:xlink="http://www.w3.org/1999/xlink" xml:space="preserve" xmlns:serif="http://www.serif.com/" style="fill-rule:evenodd;clip-rule:evenodd;stroke-linejoin:round;stroke-miterlimit:2;">
    <g transform="matrix(1,0,0,1,-528.3,-89.07)">
        <path d="M548.1,148.47L548.1,128.67L567.9,128.67L567.9,138.52L587.7,138.52L587.7,148.47L577.75,148.47L577.75,158.32L567.9,158.32L567.9,148.47L548.1,148.47Z" style="fill-rule:nonzero;"/>
    </g>
    <g transform="matrix(1,0,0,1,-528.3,-89.07)">
        <path d="M597.54,108.87L617.34,108.87L617.34,128.67L607.49,128.67L607.49,148.47L597.54,148.47L597.54,138.52L587.69,138.52L587.69,128.67L597.54,128.67L597.54,108.87Z" style="fill-rule:nonzero;"/>
    </g>
    <g transform="matrix(1,0,0,1,-528.3,-89.07)">
        <path d="M548.1,148.46L548.1,158.32L557.95,158.32L557.95,178.12L548.1,178.12L548.1,188.07L557.95,188.07L557.95,197.92L548.1,197.92L548.1,188.07L538.25,188.07L538.25,178.27L528.3,178.11L528.3,158.31L538.25,158.31L538.25,148.46L548.1,148.46Z" style="fill-rule:nonzero;"/>
    </g>
    <g transform="matrix(1,0,0,1,-528.3,-89.07)">
        <path d="M656.94,148.47L646.99,148.47L646.99,158.32L637.14,158.32L637.14,148.47L627.29,148.47L627.29,128.67L637.14,128.67L637.14,118.72L627.29,118.72L627.29,108.87L637.14,108.87L637.14,118.72L646.99,118.72L646.99,128.52L647.15,128.68L656.95,128.68" style="fill-rule:nonzero;"/>
    </g>
    <g transform="matrix(1,0,0,1,-528.3,-89.07)">
        <path d="M597.54,217.71L597.54,207.76L587.69,207.76L587.69,197.91L597.54,197.91L597.54,188.06L617.34,188.06L617.34,197.91L627.29,197.91L627.29,188.06L637.14,188.06L637.14,197.91L627.29,197.91L627.29,207.76L617.49,207.76L617.33,207.92L617.33,217.72" style="fill-rule:nonzero;"/>
    </g>
    <g transform="matrix(1,0,0,1,-528.3,-89.07)">
        <path d="M607.49,148.47L617.34,148.47L617.34,158.32L637.14,158.32L637.14,178.12L617.34,178.12L617.34,168.27L597.54,168.27L597.54,158.32L607.49,158.32L607.49,148.47Z" style="fill-rule:nonzero;"/>
    </g>
    <g transform="matrix(1,0,0,1,-528.3,-89.07)">
        <path d="M587.7,89.07L587.7,99.02L597.55,99.02L597.55,108.87L587.7,108.87L587.7,118.72L567.9,118.72L567.9,108.87L557.95,108.87L557.95,118.72L548.1,118.72L548.1,108.87L557.95,108.87L557.95,99.02L567.75,99.02L567.91,89.07L587.71,89.07L587.7,89.07Z" style="fill-rule:nonzero;"/>
    </g>
    <g transform="matrix(1,0,0,1,-528.3,-89.07)">
        <path d="M577.75,158.32L587.7,158.32L587.7,168.27L597.55,168.27L597.55,178.12L587.7,178.12L587.7,197.92L567.9,197.92L567.9,178.12L577.75,178.12L577.75,158.32Z" style="fill-rule:nonzero;"/>
    </g>
</svg>
