<?xml version="1.0" encoding="UTF-8" standalone="no"?><!DOCTYPE svg PUBLIC "-//W3C//DTD SVG 1.1//EN" "http://www.w3.org/Graphics/SVG/1.1/DTD/svg11.dtd"><svg width="100%" height="100%" viewBox="0 0 1241 1242" version="1.1" xmlns="http://www.w3.org/2000/svg" xmlns:xlink="http://www.w3.org/1999/xlink" xml:space="preserve" xmlns:serif="http://www.serif.com/" style="fill-rule:evenodd;clip-rule:evenodd;stroke-linejoin:round;stroke-miterlimit:2;"><path d="M668.105,1050.25l-0,-95.477l190.887,0l-0,95.477l95.444,-0l-0,95.477l-95.444,-0l-0,95.477l-190.887,-0l-0,-95.477l-95.444,-0l0,-95.477l95.444,-0Zm286.331,-95.477l95.443,0l0,95.477l-95.443,-0l-0,-95.477Zm-286.331,-95.477l-95.444,0l0,190.954l-190.887,-0l0,-190.954l95.444,0l-0,-190.953l95.443,-0l0,95.476l95.444,0l-0,95.477Zm-381.774,95.477l-0,95.477l-95.444,-0l0,-95.477l95.444,0Zm-95.444,-286.43l95.444,-0l-0,190.953l-95.444,0l0,95.477l-95.443,0l-0,-95.477l-95.444,0l-0,-190.953l95.444,-0l-0,-95.477l95.443,-0l0,95.477Zm668.105,-95.477l-0,95.477l190.887,-0l0,190.953l-190.887,0l-0,-95.477l-190.887,0l-0,-95.476l95.443,-0l0,-95.477l95.444,-0Zm190.887,-0l-95.443,-0l-0,-190.954l95.443,0l0,-95.477l95.444,0l-0,95.477l95.443,0l0,190.954l-95.443,-0l-0,95.477l-95.444,-0l0,-95.477Zm-668.105,95.477l0,-95.477l-190.887,-0l0,-190.954l190.887,0l0,95.477l190.887,0l0,95.477l-95.443,-0l-0,95.477l-95.444,-0Zm286.331,-286.431l-0,-190.953l-95.444,-0l0,95.476l-190.887,0l0,-95.476l-95.443,-0l-0,-95.477l95.443,-0l0,-95.477l190.887,0l0,95.477l95.444,-0l-0,95.477l190.887,-0l-0,190.953l-95.444,0l0,190.954l-95.443,-0l-0,-95.477l-95.444,0l0,-95.477l95.444,0Zm286.331,-95.477l-0,-95.476l95.443,-0l0,95.476l-95.443,0Zm-668.105,0l-95.444,0l0,-95.476l95.444,-0l-0,95.476Z" style="fill:#1c1a1d;"/></svg>